<?xml version="1.0" standalone="no"?>
<!DOCTYPE svg PUBLIC "-//W3C//DTD SVG 20010904//EN"
 "http://www.w3.org/TR/2001/REC-SVG-20010904/DTD/svg10.dtd">
<svg version="1.0" xmlns="http://www.w3.org/2000/svg"
 width="100.000000pt" height="100.000000pt" viewBox="0 0 100.000000 100.000000"
 preserveAspectRatio="xMidYMid meet">
<metadata>
Created by potrace 1.14, written by Peter Selinger 2001-2017
</metadata>
<g transform="translate(0.000000,100.000000) scale(0.100000,-0.100000)"
fill="#000000" stroke="none">
<path d="M0 500 l0 -500 500 0 500 0 0 500 0 500 -500 0 -500 0 0 -500z m280
380 c11 -7 16 -33 18 -100 l4 -90 46 41 c33 28 53 39 71 37 43 -5 39 -40 -9
-78 l-41 -32 51 -54 c52 -55 59 -78 28 -97 -23 -15 -54 4 -103 63 l-40 49 -7
-46 c-7 -47 -19 -63 -50 -63 -31 0 -38 35 -38 190 0 85 5 160 10 171 12 21 36
24 60 9z m430 -108 c104 -52 104 -192 0 -244 -70 -35 -154 -13 -197 51 -60 89
13 211 127 211 19 0 51 -8 70 -18z m-286 -344 c29 -13 43 -45 27 -61 -8 -8
-23 -8 -54 0 -34 10 -46 9 -64 -3 -67 -43 -18 -168 53 -135 50 22 81 10 69
-28 -7 -23 -54 -41 -104 -41 -72 0 -141 69 -141 141 0 96 123 169 214 127z
m286 -6 c46 -23 80 -75 80 -122 0 -73 -72 -140 -150 -140 -78 0 -150 67 -150
140 0 73 72 140 150 140 19 0 51 -8 70 -18z"/>
<path d="M605 705 c-16 -15 -25 -36 -25 -55 0 -31 37 -80 60 -80 23 0 60 49
60 80 0 31 -37 80 -60 80 -6 0 -22 -11 -35 -25z"/>
<path d="M605 355 c-16 -15 -25 -36 -25 -55 0 -33 38 -80 64 -80 22 0 56 49
56 82 0 29 -38 78 -60 78 -6 0 -22 -11 -35 -25z"/>
</g>
</svg>
