<svg width="127" height="38" viewBox="0 0 127 38" fill="none" xmlns="http://www.w3.org/2000/svg">
        <path
            d="M23.0767 37.9997C17.2861 37.8967 11.6182 36.2882 6.71097 32.2862C3.9629 30.0342 1.85277 27.2547 0.760907 23.7416C-0.833956 18.5815 0.110694 13.8202 3.16547 9.53507C6.18344 5.30141 10.3055 2.71488 15.0779 1.29937C22.2425 -0.849628 29.2721 -0.373501 36.0196 3.04946C39.786 4.95396 42.9266 7.68204 44.9018 11.6069C47.9198 17.5777 47.3309 23.3299 43.4787 28.6573C40.2767 33.0969 35.8356 35.5804 30.7934 36.996C28.3888 37.678 25.9107 37.9611 23.0767 37.9997ZM35.4676 22.2232C33.7991 21.5154 32.1797 21.1937 30.4744 21.554C28.3643 21.9916 26.794 23.8317 26.7694 25.9035C26.7449 27.8337 28.1803 29.571 30.1923 30.0214C32.5968 30.5747 35.8847 29.1334 37.2465 26.9587C37.4059 26.7013 37.3691 26.5727 37.1851 26.3668C36.1546 25.2858 35.2222 25.2858 34.253 26.4182C33.5047 27.2933 32.5968 27.8595 31.4927 28.0782C29.5666 28.4643 28.1067 27.1775 28.3766 25.3373C28.5483 24.192 29.493 23.2526 30.7689 22.9824C32.5355 22.6092 34.0445 23.2655 35.3817 24.3593C36.5104 25.273 37.5532 26.3153 38.645 27.2804C39.4915 28.0268 40.4975 28.3485 41.6017 28.2584C41.7734 28.2455 42.0065 28.3227 42.0924 28.104C42.1537 27.9367 41.9942 27.7823 41.8838 27.6665C41.4299 27.2161 41.5771 26.8686 41.8961 26.3668C44.73 21.8886 45.0122 17.256 42.4604 12.5591C40.5098 8.96886 37.4918 6.61397 33.9341 5.0183C27.7877 2.26449 21.5064 2.07147 15.1269 4.10466C14.8693 4.18187 14.6362 4.27194 14.354 4.23334C13.0904 4.11753 11.8759 4.37489 10.6736 4.72233C10.1951 4.86388 10.2687 5.05691 10.5018 5.37862C11.1398 6.25366 11.8391 7.05149 12.6733 7.72064C14.2191 8.93026 15.8998 9.31631 17.7646 8.67289C18.1572 8.53134 18.2431 8.37692 17.9486 8.00374C17.0776 6.8842 15.9612 6.17645 14.6853 5.72606C14.5503 5.67459 14.4154 5.63598 14.2804 5.58451C14.1455 5.53303 13.986 5.53303 13.8633 5.28854C15.7158 5.62311 17.3352 6.22792 18.5007 7.9008C18.5743 7.20591 18.378 6.70405 18.1081 6.21505C17.8382 5.72606 17.3843 5.41722 16.9426 5.0183C17.2125 4.94109 17.4088 4.88962 17.6051 4.83815C20.3532 4.19473 23.1381 4.02745 25.9475 4.29768C29.6279 4.65799 33.0876 5.73893 36.2037 7.83646C39.7001 10.1913 42.2396 13.2926 42.7671 17.7965C43.1229 20.8077 42.2519 23.4971 40.5834 25.9421C39.9087 25.3502 39.283 24.7711 38.6328 24.2178C38.4365 24.0505 38.4242 23.8703 38.461 23.6516C38.5592 22.9824 38.4733 22.3261 38.3138 21.6827C37.7495 19.3664 36.3386 17.7322 34.5229 16.4196C34.3144 16.2652 34.0935 16.188 34.1794 15.789C34.5965 13.8845 33.9831 12.276 32.6827 10.9506C31.0388 9.2777 28.9777 8.59568 26.7694 8.29971C25.4077 8.11956 24.0336 8.14529 22.6719 8.29971C22.2548 8.35119 22.1198 8.2225 22.2057 7.78498C22.3038 7.32172 22.3529 6.85847 22.4265 6.39521C22.4633 6.17645 22.5001 5.97056 22.1689 5.95769C21.0279 5.93195 20.071 6.27939 19.4576 7.34746C19.2491 7.70777 19.0528 8.09382 18.8933 8.49274C18.7338 8.90452 18.4516 9.09754 18.0468 9.22623C16.1575 9.83104 14.3786 10.6803 12.7837 11.9157C12.477 12.1473 12.1335 12.3532 11.8881 12.9194C13.8388 12.2117 15.6177 11.4396 17.556 11.0535C17.5192 11.1822 17.4947 11.2594 17.4579 11.3366C15.7772 14.5794 14.0964 17.8094 12.4402 21.0522C12.2807 21.361 12.1212 21.3996 11.8145 21.3739C9.9007 21.2066 8.0114 21.2838 6.25705 22.2232C5.71725 22.5063 5.3124 22.9824 4.80941 23.3942C3.99971 21.3224 3.74207 19.2506 4.12239 17.1016C4.71126 13.7816 6.49015 11.2337 8.91924 9.12328C9.6676 8.467 10.5018 7.92653 11.3361 7.3732C10.5141 6.78126 9.72894 6.80699 8.8579 7.45041C8.02367 8.04235 7.2385 8.73723 6.53922 9.5222C2.8465 13.6915 1.5338 18.4142 3.57032 23.8832C3.82795 24.5652 4.14692 25.1829 4.08558 25.955C4.06105 26.2896 4.2328 26.6113 4.41682 26.9072C5.06704 27.9882 6.34293 28.49 7.70469 28.1941C9.72894 27.7565 11.1152 26.3539 12.3421 24.7325C12.6242 24.3593 12.9309 23.999 13.0904 23.4971C11.9372 23.2784 10.9926 23.4843 10.2933 24.5266C10.0356 24.9126 9.70441 25.2472 9.37317 25.5689C8.69842 26.2123 7.98686 26.7785 7.04221 26.8815C6.392 26.9587 5.80313 26.8043 5.44735 26.1737C5.09157 25.5303 5.28786 24.9255 5.68045 24.385C6.29385 23.5229 7.2017 23.1626 8.15862 22.9953C10.968 22.4934 13.6302 23.2012 16.2556 24.1663C16.5378 24.2692 16.5501 24.4237 16.501 24.7068C16.3047 25.7362 16.1329 26.7657 15.9734 27.808C15.9366 28.0139 15.8017 28.2841 16.1943 28.3099C17.7278 28.4128 19.1509 27.9753 19.4453 26.0837C19.4576 25.9807 19.4453 25.8263 19.5926 25.7491C19.6907 25.8006 19.8011 25.852 19.9115 25.9164C21.3101 26.6756 22.6964 27.4348 24.1072 28.1812C25.0642 28.6831 25.6162 28.3742 25.7512 27.3061C26.0211 25.2472 26.3278 23.2012 26.61 21.1422C26.6468 20.8463 26.7326 20.7047 27.0516 20.6661C29.1985 20.4088 31.2105 19.7782 32.8422 18.1825C33.0385 17.9895 33.1489 18.0796 33.2961 18.2211C34.4493 19.2506 35.2222 20.5246 35.4676 22.2232ZM39.8718 28.8117C39.0499 28.4514 38.3383 28.593 37.6758 29.0691C37.0992 29.4809 36.5594 29.9441 35.9583 30.3045C30.0328 33.9462 23.7024 34.6282 17.0898 33.0325C14.2682 32.3505 11.6796 31.1023 9.3609 29.2879C8.64935 28.7345 7.88872 28.4643 7.01768 28.9147C14.7344 37.1632 31.5418 37.5364 39.8718 28.8117Z"
            fill="#FFF3E7" />
        <path
            d="M112.634 14.4382C113.407 12.4179 114.131 10.5391 114.855 8.66032C115.431 7.15473 116.008 5.64914 116.597 4.14356C117.137 2.75378 117.578 2.45781 119.001 2.44494C119.468 2.44494 119.946 2.49642 120.412 2.43208C121.013 2.35487 121.296 2.5865 121.541 3.17844C123.283 7.37349 125.062 11.5428 126.853 15.725C127.074 16.2526 126.988 16.3684 126.461 16.3427C125.602 16.3041 124.743 16.2912 123.884 16.3427C123.344 16.3813 123.124 16.1497 122.964 15.6735C122.78 15.1331 122.535 14.6055 122.338 14.065C122.24 13.769 122.105 13.6275 121.774 13.6403C120.216 13.6661 118.67 13.6661 117.112 13.6403C116.756 13.6403 116.609 13.769 116.499 14.1036C116.364 14.5669 116.118 15.0172 116.008 15.4805C115.861 16.1625 115.517 16.3684 114.855 16.3427C113.26 16.2912 111.665 16.3041 110.07 16.3427C109.629 16.3555 109.42 16.1883 109.248 15.7765C108.88 14.85 108.475 13.9363 108.046 13.0355C107.543 11.9675 106.942 10.9637 105.727 10.642C105.592 10.6034 105.445 10.5906 105.31 10.5648C104.881 10.4876 104.697 10.6292 104.709 11.131C104.746 12.6495 104.709 14.1808 104.734 15.6993C104.746 16.1625 104.648 16.3555 104.169 16.3298C103.31 16.2912 102.452 16.3041 101.593 16.3298C101.249 16.3427 101.127 16.2269 101.127 15.8537C101.139 12.0961 101.114 8.35148 101.139 4.59395C101.151 3.22991 101.936 2.47068 103.237 2.44494C104.721 2.40634 104.721 2.40634 104.721 3.95053C104.721 5.04433 104.734 6.13814 104.709 7.23194C104.697 7.63086 104.844 7.72093 105.2 7.7338C106.095 7.75954 106.746 7.38636 107.138 6.54992C107.457 5.88077 107.764 5.19875 108.071 4.5296C108.856 2.83099 110.917 1.90448 112.585 2.49642C112.794 2.57363 112.88 2.67657 112.843 2.9082C112.745 3.56448 112.659 4.22077 112.585 4.87705C112.548 5.19875 112.475 5.41751 112.07 5.41751C111.432 5.41751 111.015 5.80356 110.77 6.40837C110.377 7.39923 109.984 8.39008 109.224 9.20079C111.003 10.4619 111.665 12.4693 112.634 14.4382ZM119.284 6.3955C118.744 7.88822 118.265 9.23939 117.775 10.5906C117.627 10.9895 117.897 10.8994 118.081 10.8994C118.903 10.8994 119.713 10.8865 120.535 10.9123C120.964 10.9251 121.075 10.8351 120.891 10.3718C120.339 9.11071 119.848 7.82388 119.284 6.3955Z"
            fill="#FFF3E7" />
        <path
            d="M69.1924 25.0545C70.2842 25.5307 71.0817 26.2513 71.4252 27.4223C72.1245 29.7901 70.6645 32.1707 68.2968 32.5696C67.7447 32.6597 67.2049 32.7112 66.6528 32.6983C64.7267 32.6854 62.8129 32.6854 60.8868 32.6983C60.5433 32.6983 60.3838 32.634 60.3838 32.2093C60.3961 28.4518 60.3838 24.7071 60.3961 20.9496C60.3961 19.7013 61.169 18.852 62.3958 18.8134C64.0274 18.7748 65.6714 18.6719 67.2908 18.9035C68.1864 19.0322 68.9838 19.4054 69.634 20.0617C70.9222 21.3614 70.9099 23.3302 69.6095 24.617C69.4868 24.7714 69.3518 24.9001 69.1924 25.0545ZM63.9784 28.4132C63.9784 28.7735 63.9784 29.1467 63.9784 29.507C63.9784 29.7386 64.0642 29.8544 64.2973 29.8544C65.1316 29.8415 65.9781 29.9187 66.8001 29.7257C67.4625 29.5713 67.806 29.1467 67.8306 28.4775C67.8551 27.8727 67.5116 27.3966 66.9227 27.1907C66.3829 26.9977 65.8309 27.062 65.2788 27.0491C63.9784 27.0363 63.9784 27.0363 63.9784 28.4132ZM63.9784 22.9441C63.9784 23.2401 63.9784 23.5361 63.9784 23.8449C63.9784 23.9993 63.9784 24.1795 64.1747 24.1795C64.8862 24.1538 65.61 24.3339 66.2848 23.9993C66.7632 23.7677 66.935 23.3302 66.8982 22.7897C66.8614 22.2364 66.5424 21.9404 66.0885 21.786C65.8186 21.6959 65.5242 21.6831 65.242 21.6702C63.9784 21.6445 63.9784 21.6445 63.9784 22.9441Z"
            fill="#FFF3E7" />
        <path
            d="M79.3018 10.1917C79.3018 8.41587 79.3018 6.62718 79.3018 4.85136C79.314 3.22996 80.0501 2.445 81.5959 2.445C83.7674 2.43213 85.9266 2.45787 88.098 2.43213C88.5397 2.43213 88.6869 2.57368 88.6256 3.0112C88.601 3.17849 88.6256 3.35864 88.6256 3.52593C88.601 4.76129 88.1103 5.28888 86.9448 5.28888C85.7794 5.28888 84.6139 5.30175 83.4484 5.27602C83.0313 5.26315 82.8841 5.37896 82.8841 5.84222C82.8841 7.42502 82.8718 7.42502 84.3808 7.42502C85.2395 7.42502 86.0983 7.43789 86.9326 7.70812C89.0059 8.40301 90.0977 10.0501 89.9628 12.3278C89.8524 14.2967 88.417 15.9181 86.3805 16.1883C84.1477 16.4971 81.8903 16.2655 79.6453 16.317C79.2527 16.3299 79.314 16.021 79.314 15.7765C79.3018 13.9235 79.3018 12.0576 79.3018 10.1917ZM82.8963 11.7359C82.8963 12.2249 82.9209 12.6109 82.8963 12.997C82.8718 13.3702 83.0313 13.486 83.3625 13.4602C83.8287 13.4216 84.3072 13.4474 84.7734 13.383C85.2886 13.3187 85.7794 13.1257 86.0493 12.6109C86.4418 11.8646 86.1597 10.9123 85.4236 10.5391C84.6507 10.1531 83.7919 10.1788 83.0313 10.3976C82.6755 10.5005 82.9822 11.337 82.8963 11.7359Z"
            fill="#FFF3E7" />
        <path
            d="M61.365 13.6532C60.6289 13.6532 59.8928 13.679 59.1567 13.6403C58.7519 13.6146 58.5801 13.769 58.4574 14.1551C58.2734 14.747 58.0281 15.3132 57.844 15.8923C57.7459 16.214 57.5987 16.3298 57.2797 16.3298C56.2982 16.3041 55.3168 16.3169 54.3353 16.3298C53.9673 16.3427 53.9305 16.214 54.0532 15.8794C55.6112 11.8645 57.157 7.83676 58.7028 3.80899C59.0709 2.84387 59.7579 2.38061 60.7639 2.43208C61.4141 2.45782 62.0766 2.45782 62.7268 2.43208C63.058 2.41922 63.2298 2.50929 63.377 2.85674C65.1927 7.18048 67.0329 11.4913 68.8608 15.8151C69.0081 16.1754 69.0571 16.3556 68.5787 16.3427C67.5972 16.3169 66.6158 16.3169 65.6343 16.3427C65.3153 16.3556 65.1559 16.2269 65.0454 15.918C64.8246 15.3004 64.5425 14.6955 64.3216 14.0779C64.1989 13.7304 64.0272 13.6275 63.696 13.6403C62.9108 13.6661 62.1379 13.6532 61.365 13.6532ZM61.2546 6.40838C60.7271 7.88823 60.2363 9.2394 59.7456 10.5906C59.6352 10.8865 59.7579 10.9123 59.9787 10.9123C60.8743 10.9123 61.7821 10.9123 62.6777 10.9123C62.9231 10.9123 63.0212 10.8351 62.9231 10.5777C62.3833 9.22653 61.8435 7.87536 61.2546 6.40838Z"
            fill="#FFF3E7" />
        <path
            d="M106.242 32.6981C106.991 30.7421 107.715 28.8634 108.438 26.9846C109.273 24.8227 110.095 22.6609 110.929 20.5119C111.456 19.1478 111.959 18.8004 113.346 18.8133C114.082 18.8261 114.965 18.5173 115.493 18.9291C115.996 19.3151 116.143 20.2159 116.437 20.8979C118.02 24.6297 119.59 28.3615 121.185 32.0804C121.394 32.5694 121.369 32.7367 120.805 32.711C119.885 32.6724 118.965 32.6853 118.044 32.711C117.689 32.7239 117.492 32.6209 117.37 32.2477C117.173 31.6429 116.891 31.0639 116.683 30.459C116.572 30.1373 116.413 29.9958 116.057 29.9958C114.523 30.0215 112.99 30.0215 111.456 29.9958C111.113 29.9958 110.941 30.0987 110.831 30.4462C110.634 31.0767 110.377 31.6815 110.181 32.3121C110.082 32.608 109.947 32.711 109.653 32.6981C108.561 32.6853 107.457 32.6981 106.242 32.6981ZM115.382 27.2677C114.806 25.8007 114.241 24.3724 113.616 22.7896C113.039 24.3852 112.536 25.8136 112.008 27.2677C113.149 27.2677 114.229 27.2677 115.382 27.2677Z"
            fill="#FFF3E7" />
        <path
            d="M84.9939 32.7113C83.6935 32.7113 82.5403 32.6984 81.3748 32.7242C81.0681 32.7242 80.9577 32.5826 80.8472 32.3124C80.4179 31.3215 79.9762 30.3307 79.5346 29.3527C79.2033 28.6321 78.7985 27.9629 78.1605 27.4997C77.9642 27.3581 77.7434 27.2294 77.5103 27.1393C76.4675 26.7533 76.2344 26.9206 76.2344 28.0659C76.2344 29.4556 76.2221 30.8583 76.2467 32.2481C76.2467 32.5955 76.1731 32.7371 75.805 32.7242C74.8849 32.6984 73.9648 32.7113 73.0447 32.7242C72.7625 32.7242 72.6521 32.647 72.6521 32.3253C72.6644 28.5034 72.6398 24.6944 72.6644 20.8725C72.6766 19.7787 73.3391 19.0967 74.4064 18.8908C76.1485 18.5691 76.2221 18.6205 76.2221 20.4221C76.2221 21.4902 76.2344 22.5711 76.2099 23.6392C76.2099 23.9995 76.2957 24.1153 76.6515 24.1282C77.6207 24.1796 78.3077 23.7807 78.7249 22.8542C79.0316 22.1722 79.326 21.4902 79.645 20.821C80.5528 18.9165 82.4789 18.5305 84.1597 18.9165C84.405 18.968 84.3682 19.1224 84.3437 19.3026C84.2823 19.753 84.2087 20.1905 84.1842 20.6409C84.1351 21.2843 84.0983 21.8762 83.2395 21.902C82.8347 21.9148 82.5403 22.2623 82.3808 22.6483C81.9637 23.6134 81.6201 24.6429 80.9086 25.4407C80.7736 25.5952 80.8227 25.6852 80.9699 25.801C82.1354 26.6632 82.7734 27.9372 83.3745 29.224C83.9143 30.3436 84.4173 31.476 84.9939 32.7113Z"
            fill="#FFF3E7" />
        <path
            d="M76.2956 8.86612C76.3938 9.08488 76.5778 9.14922 76.725 9.25217C79.0192 11.0409 78.7002 14.4638 76.0993 15.6863C74.4554 16.4584 72.7133 16.6257 70.9467 16.3297C70.2965 16.2139 69.8916 15.712 69.5604 15.1458C69.2782 14.6697 69.1187 14.1421 68.9225 13.6274C68.7507 13.1641 68.8611 13.0483 69.3028 13.1513C70.3088 13.3958 71.327 13.4086 72.3575 13.37C72.7869 13.3571 73.2041 13.2542 73.5966 13.074C74.0751 12.8424 74.3327 12.4692 74.2959 11.903C74.2591 11.3497 73.9156 11.0666 73.4494 10.9379C72.6275 10.7063 71.7932 10.6934 70.959 10.7063C70.5419 10.7192 70.3578 10.6162 70.4069 10.1401C70.4437 9.75403 70.4192 9.36798 70.4192 8.98194C70.4192 7.8624 70.4192 7.8624 71.462 7.84953C72.1613 7.84953 72.8483 7.84953 73.5108 7.55356C73.8665 7.38627 74.1487 7.15464 74.2223 6.74286C74.3205 6.12518 74.0015 5.76487 73.4985 5.55898C72.6274 5.19866 71.7319 5.28874 70.8363 5.41742C70.6155 5.45603 70.3946 5.5075 70.1738 5.57184C68.7016 5.94502 68.7016 5.94502 68.5912 4.36223C68.5912 4.27215 68.5789 4.19494 68.5789 4.10486C68.5053 2.94672 68.5053 2.94672 69.5727 2.70222C71.5233 2.2647 73.4862 2.04594 75.4369 2.67648C75.8663 2.81803 76.2834 2.99819 76.6637 3.24269C78.4671 4.38796 78.6757 6.70425 77.1053 8.1841C76.8722 8.45434 76.5901 8.63449 76.2956 8.86612Z"
            fill="#FFF3E7" />
        <path
            d="M85.08 18.8005C86.1718 18.8005 87.276 18.8134 88.3801 18.8005C88.7236 18.8005 88.7481 19.0836 88.8463 19.3024C89.6069 20.9753 90.3553 22.661 91.1772 24.4883C91.533 23.3945 91.852 22.468 92.1587 21.5286C92.2936 21.1297 92.4041 20.705 92.5513 20.319C92.9561 19.2509 93.5695 18.8263 94.6614 18.8134C95.1521 18.8134 95.6428 18.8391 96.1336 18.8005C96.5752 18.7748 96.6734 18.8777 96.4894 19.3281C95.8391 20.9238 95.2257 22.5323 94.6 24.128C93.7781 26.2255 92.9561 28.3102 92.1464 30.4077C91.533 32.0034 90.3921 32.827 88.7481 32.8398C88.0366 32.8527 87.325 32.8141 86.6135 32.6854C86.2454 32.6211 86.0859 32.4538 86.1596 32.042C86.2577 31.4758 86.3436 30.8967 86.3927 30.3305C86.4172 30.0345 86.5521 29.9831 86.7852 29.9831C87.2392 29.9959 87.6808 30.0088 88.1347 29.9831C89.2143 29.9187 89.6805 29.108 89.2266 28.1172C87.9016 25.2218 86.5889 22.3264 85.2762 19.4311C85.1658 19.2638 85.0309 19.0836 85.08 18.8005Z"
            fill="#FFF3E7" />
        <path
            d="M95.52 8.06843C95.9371 6.76874 96.3174 5.57199 96.71 4.37524C97.2007 2.84391 97.716 2.45787 99.2617 2.445C99.8015 2.445 100.354 2.445 100.979 2.445C100.354 4.04066 99.7647 5.55912 99.1636 7.07758C98.2558 9.39386 97.3602 11.6973 96.4523 14.0136C95.8021 15.6865 94.6735 16.4714 92.9559 16.4843C92.2444 16.4843 91.5328 16.4328 90.8212 16.2784C90.4777 16.214 90.3796 16.0468 90.4532 15.7122C90.4655 15.6478 90.4777 15.5835 90.49 15.5192C90.5759 14.9272 90.4777 14.1809 90.7844 13.7819C91.1157 13.3444 91.864 13.7047 92.4161 13.6275C92.8332 13.5632 93.2135 13.4474 93.4957 13.0999C93.7901 12.7525 93.876 12.4308 93.6552 11.9547C92.2812 8.99495 90.9317 6.02238 89.5822 3.04981C89.5085 2.88252 89.4349 2.70236 89.3123 2.43213C90.5145 2.43213 91.6432 2.43213 92.7719 2.43213C93.0786 2.43213 93.0909 2.71523 93.1767 2.90826C93.8638 4.43958 94.5508 5.95804 95.2378 7.48936C95.2991 7.65665 95.385 7.7982 95.52 8.06843Z"
            fill="#FFF3E7" />
        <path
            d="M106.598 28.9408C106.426 29.8416 106.23 30.6266 105.886 31.3601C105.506 32.1322 104.942 32.6598 104.107 32.7756C101.74 33.0973 99.519 32.7498 97.7279 30.9612C95.7649 28.9923 95.1147 26.5473 95.8876 23.8064C96.6728 21.0269 98.5253 19.4054 101.212 18.8264C103.003 18.4403 104.733 18.7492 106.426 19.4441C106.635 19.5341 106.782 19.5985 106.782 19.8816C106.77 20.8853 106.782 21.889 106.782 22.9957C106.082 22.6483 105.469 22.2622 104.794 22.0434C103.764 21.7217 102.721 21.5673 101.666 21.8762C99.9484 22.3909 98.9179 24.1152 99.0651 26.1613C99.2123 28.143 100.402 29.4813 102.218 29.7515C103.42 29.9317 104.573 29.7001 105.702 29.3011C105.96 29.1982 106.242 29.0824 106.598 28.9408Z"
            fill="#FFF3E7" />
        <path
            d="M27.1008 10.848C25.5672 10.848 24.8802 11.4914 24.6594 13.1C24.6226 13.3959 24.5612 13.6919 24.5367 13.9879C24.4876 14.7728 24.3159 15.4291 23.4816 15.7122C23.2117 15.8023 22.9787 16.0725 22.7578 16.2913C21.5555 17.5009 21.7028 19.058 23.1136 19.9459C23.5185 20.2032 23.6289 20.4477 23.5553 20.911C23.3712 22.0305 23.2117 23.1501 23.0768 24.2825C23.0277 24.6814 22.8928 24.7329 22.5615 24.5913C21.7764 24.231 20.9789 23.9093 20.1815 23.5876C19.9116 23.4847 19.8625 23.3174 19.9116 23.0471C20.5005 19.1609 21.0771 15.2618 21.6782 11.3756C21.8377 10.2947 21.8622 10.2947 22.9173 10.2046C24.8557 10.0502 26.7573 10.1531 28.5852 10.8995C29.9838 11.4786 31.1125 12.3793 31.5786 13.975C31.6032 14.0522 31.6277 14.1423 31.64 14.2195C31.7872 15.0431 31.7136 15.146 30.9407 14.9916C29.9592 14.7986 28.9655 14.6313 27.9595 14.6442C27.6038 14.6442 27.5547 14.4897 27.6038 14.1809C27.7142 13.4217 27.8 12.6496 27.9105 11.8903C28.0822 10.848 28.0945 10.848 27.1008 10.848Z"
            fill="#FFF3E7" />
        <path
            d="M14.1328 21.6572C15.5068 19.0063 16.8563 16.3941 18.2058 13.7947C18.2304 13.8075 18.2672 13.8204 18.2917 13.8333C17.9482 15.9308 17.6047 18.0283 17.2612 20.1387C17.1631 20.7693 17.0526 21.3998 16.9545 22.0304C16.93 22.2105 16.9054 22.3778 16.6601 22.3263C15.8258 22.0947 15.0039 21.876 14.1328 21.6572Z"
            fill="#FFF3E7" />
        <path
            d="M27.1865 16.0596C28.5115 16.0982 29.6401 16.2912 30.7197 16.6772C31.0264 16.7931 31.1736 16.9089 30.916 17.2435C29.9468 18.4917 28.6341 18.9678 27.1742 19.1351C26.9043 19.1608 26.9411 19.0193 26.9657 18.8262C27.0638 18.17 27.1497 17.5137 27.2478 16.8574C27.3092 16.4971 27.211 16.3427 26.843 16.3941C25.5426 16.5486 24.4875 17.0504 23.9722 18.4273C23.9232 18.556 23.9354 18.7748 23.7391 18.7362C23.6164 18.7104 23.4815 18.5818 23.4202 18.4659C23.1625 18.0027 23.3343 17.6038 23.6655 17.2563C24.2667 16.6258 25.0396 16.3555 25.8493 16.214C26.34 16.111 26.8552 16.0853 27.1865 16.0596Z"
            fill="#FFF3E7" />
        <path
            d="M13.7405 5.28873C13.5688 5.39168 13.4338 5.34021 13.2866 5.3016C13.4093 5.16005 13.5443 5.22439 13.7405 5.28873Z"
            fill="#FFF3E7" />
    <defs>
        <clipPath id="clip0">
            <rect width="126.976" height="38" fill="white" />
        </clipPath>
    </defs>
</svg>