<svg width="24" height="21" viewBox="0 0 24 21" fill="none" xmlns="http://www.w3.org/2000/svg">
<path d="M0.54609 0.000610352C-0.101554 -0.0197896 -0.211229 0.918396 0.423624 1.0481L2.40221 1.4827L2.91068 3.90268C2.91094 3.90568 2.91147 3.90568 2.91178 3.90768L5.43346 15.3276C5.48706 15.57 5.70194 15.7426 5.95019 15.7426H20.2318C20.9479 15.7532 20.9479 14.6736 20.2318 14.6843H6.37543L5.88866 12.4792H20.9526C21.2008 12.4793 21.4157 12.3067 21.4693 12.0643L23.2707 3.9072C23.3436 3.57688 23.0922 3.26382 22.7539 3.26382C16.455 3.26398 10.1562 3.26383 3.85737 3.26083L3.3675 0.929688C3.32471 0.725857 3.16634 0.566064 2.9629 0.521484L0.651013 0.0140076C0.616604 0.00600757 0.581465 0.001 0.546114 0L0.54609 0.000610352ZM9.33579 16.86C8.30038 16.86 7.45126 17.7127 7.45125 18.7487C7.45124 19.7847 8.30036 20.6375 9.33579 20.6375C10.3712 20.6375 11.2203 19.7847 11.2203 18.7487C11.2203 17.7127 10.3712 16.86 9.33579 16.86V16.86ZM16.9256 16.86C15.8902 16.86 15.0411 17.7127 15.0411 18.7487C15.0411 19.7847 15.8902 20.6375 16.9256 20.6375C17.961 20.6375 18.8102 19.7847 18.8102 18.7487C18.8102 17.7127 17.961 16.86 16.9256 16.86Z" fill="#808285"/>
</svg>
