<svg width="25" height="25" viewBox="0 0 25 25" fill="none" xmlns="http://www.w3.org/2000/svg">
<circle cx="12.5" cy="12.5" r="12" stroke="#FAEEE2"/>
<g clip-path="url(#clip0)">
<path d="M16.8013 12.9033C16.8013 11.9692 16.1629 11.203 15.3094 10.9678C15.4331 10.662 15.4799 10.3305 15.4455 10.0024C15.411 9.6743 15.2965 9.35969 15.112 9.08622C14.9275 8.81276 14.6786 8.58882 14.3872 8.43411C14.0959 8.2794 13.771 8.19864 13.4411 8.19896C13.1521 8.19896 12.8833 8.26616 12.6413 8.37369C12.769 7.65459 13.0311 6.57931 13.7099 6.31721L13.1722 5.51074C12.0297 6.02822 11.6937 7.58739 11.5996 8.39385C11.3375 8.27288 11.0553 8.19896 10.7528 8.19896C10.423 8.19864 10.098 8.2794 9.80667 8.43411C9.5153 8.58882 9.26641 8.81276 9.08189 9.08622C8.89737 9.35969 8.78286 9.6743 8.74845 10.0024C8.71404 10.3305 8.76077 10.662 8.88454 10.9678C8.02431 11.1963 7.39258 11.9759 7.39258 12.9033C7.39258 13.8375 8.03103 14.6103 8.89126 14.8388C8.79717 15.0673 8.73669 15.3227 8.73669 15.5915C8.73669 16.5257 9.36842 17.2986 10.2286 17.5271C10.1049 17.8329 10.0581 18.1644 10.0926 18.4925C10.127 18.8206 10.2415 19.1352 10.426 19.4087C10.6105 19.6821 10.8594 19.9061 11.1508 20.0608C11.4421 20.2155 11.7671 20.2962 12.097 20.2959C12.4268 20.2962 12.7518 20.2155 13.0431 20.0608C13.3345 19.9061 13.5834 19.6821 13.7679 19.4087C13.9524 19.1352 14.0669 18.8206 14.1013 18.4925C14.1358 18.1644 14.089 17.8329 13.9653 17.5271C14.393 17.4149 14.7715 17.1641 15.0415 16.8139C15.3115 16.4637 15.4577 16.0338 15.4572 15.5915C15.4572 15.3227 15.4035 15.0741 15.3027 14.8388C15.7312 14.7272 16.1107 14.4767 16.3818 14.1265C16.653 13.7763 16.8005 13.3462 16.8013 12.9033ZM14.9935 11.4786V11.492H14.9868L14.9935 11.4786ZM13.4411 9.20704C13.9989 9.20704 14.4491 9.65731 14.4491 10.2151C14.4491 10.7729 13.9989 11.2232 13.4411 11.2232C12.8833 11.2232 12.433 10.7729 12.433 10.2151C12.433 9.65731 12.8833 9.20704 13.4411 9.20704ZM13.105 12.9033C13.105 13.4611 12.6548 13.9114 12.097 13.9114C11.5391 13.9114 11.0889 13.4611 11.0889 12.9033C11.0889 12.3455 11.5391 11.8953 12.097 11.8953C12.6548 11.8953 13.105 12.3455 13.105 12.9033ZM10.7528 9.20704C11.3107 9.20704 11.7609 9.65731 11.7609 10.2151C11.7609 10.7729 11.3107 11.2232 10.7528 11.2232C10.195 11.2232 9.74477 10.7729 9.74477 10.2151C9.74477 9.65731 10.195 9.20704 10.7528 9.20704ZM8.40066 12.9033C8.40066 12.3455 8.85093 11.8953 9.40874 11.8953C9.96654 11.8953 10.4168 12.3455 10.4168 12.9033C10.4168 13.4611 9.96654 13.9114 9.40874 13.9114C8.85093 13.9114 8.40066 13.4611 8.40066 12.9033ZM9.74477 15.5915C9.74477 15.0337 10.195 14.5835 10.7528 14.5835C11.3107 14.5835 11.7609 15.0337 11.7609 15.5915C11.7609 16.1494 11.3107 16.5996 10.7528 16.5996C10.195 16.5996 9.74477 16.1494 9.74477 15.5915ZM12.097 19.2878C11.5391 19.2878 11.0889 18.8376 11.0889 18.2798C11.0889 17.722 11.5391 17.2717 12.097 17.2717C12.6548 17.2717 13.105 17.722 13.105 18.2798C13.105 18.8376 12.6548 19.2878 12.097 19.2878ZM13.4411 16.5996C12.8833 16.5996 12.433 16.1494 12.433 15.5915C12.433 15.0337 12.8833 14.5835 13.4411 14.5835C13.9989 14.5835 14.4491 15.0337 14.4491 15.5915C14.4491 16.1494 13.9989 16.5996 13.4411 16.5996ZM14.7852 13.9114C14.2274 13.9114 13.7771 13.4611 13.7771 12.9033C13.7771 12.3455 14.2274 11.8953 14.7852 11.8953C15.343 11.8953 15.7932 12.3455 15.7932 12.9033C15.7932 13.4611 15.343 13.9114 14.7852 13.9114Z" fill="#FAEEE2"/>
</g>
<defs>
<clipPath id="clip0">
<rect width="16.1293" height="16.1293" fill="white" transform="translate(4.03198 4.83862)"/>
</clipPath>
</defs>
</svg>
