<svg width="25" height="25" viewBox="0 0 25 25" fill="none" xmlns="http://www.w3.org/2000/svg">
<circle cx="12.5" cy="12.5" r="12" stroke="#FAEEE2"/>
<path d="M9.19368 7.74194C9.10812 7.74194 9.02607 7.77593 8.96558 7.83643C8.90508 7.89692 8.87109 7.97897 8.87109 8.06453V11.613C8.87108 12.4127 9.16812 13.1839 9.70458 13.777C10.241 14.3701 10.9787 14.7427 11.7744 14.8227V17.4195H10.484C10.3985 17.4195 10.3164 17.4535 10.2559 17.514C10.1954 17.5745 10.1614 17.6565 10.1614 17.7421C10.1614 17.8277 10.1954 17.9097 10.2559 17.9702C10.3164 18.0307 10.3985 18.0647 10.484 18.0647H13.7099C13.7954 18.0647 13.8775 18.0307 13.938 17.9702C13.9985 17.9097 14.0325 17.8277 14.0325 17.7421C14.0325 17.6565 13.9985 17.5745 13.938 17.514C13.8775 17.4535 13.7954 17.4195 13.7099 17.4195H12.4195V14.8388V14.8227C13.2152 14.7427 13.9529 14.3701 14.4893 13.777C15.0258 13.1839 15.3228 12.4127 15.3228 11.613V8.06453C15.3228 7.97897 15.2888 7.89692 15.2283 7.83643C15.1678 7.77593 15.0858 7.74194 15.0002 7.74194H9.19368ZM9.51627 10V8.38711H14.6776V10H9.51627ZM14.3241 11.6614C14.247 12.1246 14.0274 12.5522 13.6958 12.8848C13.3643 13.2174 12.9374 13.4383 12.4744 13.5169C12.4326 13.5239 12.3899 13.5227 12.3486 13.5133C12.3073 13.5038 12.2682 13.4863 12.2337 13.4618C12.1992 13.4373 12.1698 13.4062 12.1473 13.3703C12.1247 13.3344 12.1095 13.2944 12.1024 13.2527C12.0954 13.2109 12.0966 13.1682 12.106 13.1269C12.1155 13.0856 12.133 13.0465 12.1575 13.012C12.182 12.9775 12.2131 12.9481 12.249 12.9256C12.2849 12.903 12.3249 12.8878 12.3666 12.8807C12.6973 12.8247 13.0023 12.6669 13.2391 12.4294C13.4759 12.1918 13.6328 11.8864 13.6879 11.5556C13.7042 11.4733 13.7518 11.4005 13.8208 11.3528C13.8898 11.3051 13.9746 11.2861 14.0573 11.2998C14.1401 11.3136 14.2142 11.359 14.264 11.4265C14.3138 11.494 14.3353 11.5782 14.3241 11.6614Z" fill="#FAEEE2"/>
</svg>
