<svg width="95" height="95" viewBox="0 0 95 95" fill="none" xmlns="http://www.w3.org/2000/svg">
<path d="M47.5 0L50.3513 2.17961L53.4533 0.37455L56.009 2.89434L59.3128 1.4923L61.5325 4.31253L64.9859 3.33562L66.8346 6.4118L70.3833 5.87543L71.8319 9.15907L75.4198 9.07169L76.4454 12.511L80.016 12.874L80.6025 16.4147L84.0994 17.2224L84.2375 20.8087L87.6056 22.0482L87.2931 25.6236L90.4793 27.2755L89.7211 30.7835L92.6752 32.8217L91.4834 36.207L94.1586 38.5994L92.5519 41.8086L94.9063 44.5174L92.91 47.5L94.9063 50.4826L92.5519 53.1914L94.1586 56.4006L91.4834 58.793L92.6752 62.1783L89.7211 64.2165L90.4793 67.7245L87.2931 69.3764L87.6056 72.9518L84.2375 74.1913L84.0994 77.7776L80.6025 78.5853L80.016 82.126L76.4454 82.489L75.4198 85.9283L71.8319 85.8409L70.3833 89.1246L66.8346 88.5882L64.9859 91.6644L61.5325 90.6875L59.3128 93.5077L56.009 92.1057L53.4533 94.6255L50.3513 92.8204L47.5 95L44.6487 92.8204L41.5467 94.6255L38.991 92.1057L35.6872 93.5077L33.4675 90.6875L30.0141 91.6644L28.1654 88.5882L24.6167 89.1246L23.1681 85.8409L19.5802 85.9283L18.5546 82.489L14.984 82.126L14.3975 78.5853L10.9006 77.7776L10.7625 74.1913L7.39442 72.9518L7.70691 69.3764L4.52071 67.7245L5.27885 64.2165L2.32481 62.1783L3.51664 58.793L0.841354 56.4006L2.44807 53.1914L0.0937309 50.4826L2.09 47.5L0.0937309 44.5174L2.44807 41.8086L0.841354 38.5994L3.51664 36.207L2.32481 32.8217L5.27885 30.7835L4.52071 27.2755L7.70691 25.6236L7.39442 22.0482L10.7625 20.8087L10.9006 17.2224L14.3975 16.4147L14.984 12.874L18.5546 12.511L19.5802 9.07169L23.1681 9.15907L24.6167 5.87543L28.1654 6.4118L30.0141 3.33562L33.4675 4.31253L35.6872 1.4923L38.991 2.89434L41.5467 0.37455L44.6487 2.17961L47.5 0Z" fill="#184240"/>
</svg>
