<svg width="25" height="25" viewBox="0 0 25 25" fill="none" xmlns="http://www.w3.org/2000/svg">
<circle cx="12.5" cy="12.5" r="12" stroke="#FAEEE2"/>
<path d="M16.9356 12.5003C16.9353 12.0674 16.8188 11.6426 16.5985 11.2701C16.3781 10.8975 16.0619 10.5909 15.6828 10.3821C15.9685 10.084 16.1284 9.68729 16.1292 9.27439H15.3227C15.3225 9.48822 15.2375 9.69322 15.0863 9.84441C14.9351 9.99561 14.7301 10.0806 14.5162 10.0809C13.8825 10.0817 13.2744 10.331 12.8224 10.7752C12.3705 11.2194 12.1107 11.8231 12.0989 12.4567C11.5819 11.9301 11.2917 11.222 11.2904 10.4841C11.2893 10.1275 11.17 9.78129 10.9511 9.49977C10.7322 9.21825 10.426 9.01731 10.0807 8.92842V8.0647H9.27422V8.92842C8.92886 9.01731 8.62274 9.21825 8.40383 9.49977C8.18492 9.78129 8.06558 10.1275 8.06452 10.4841V12.5003H7.25806V12.9035C7.25806 14.4007 7.85282 15.8366 8.91151 16.8953C9.9702 17.954 11.4061 18.5487 12.9033 18.5487C14.4005 18.5487 15.8364 17.954 16.8951 16.8953C17.9538 15.8366 18.5486 14.4007 18.5486 12.9035V12.5003H16.9356ZM14.5162 10.8873C14.9438 10.8879 15.3538 11.058 15.6562 11.3603C15.9585 11.6627 16.1286 12.0726 16.1292 12.5003H12.9033C12.9038 12.0726 13.0739 11.6627 13.3763 11.3603C13.6787 11.058 14.0886 10.8879 14.5162 10.8873ZM8.87099 10.4841C8.87099 10.2702 8.95595 10.0651 9.10719 9.91383C9.25843 9.76259 9.46356 9.67763 9.67745 9.67763C9.89134 9.67763 10.0965 9.76259 10.2477 9.91383C10.3989 10.0651 10.4839 10.2702 10.4839 10.4841C10.4855 11.2025 10.7005 11.9042 11.1017 12.5003H8.87099V10.4841ZM12.9033 17.7423C11.6902 17.7408 10.5218 17.2843 9.62891 16.463C8.73605 15.6418 8.18372 14.5155 8.08105 13.3067H17.726C17.6233 14.5156 17.0709 15.6419 16.178 16.4632C15.285 17.2844 14.1165 17.7409 12.9033 17.7423Z" fill="#FAEEE2"/>
</svg>
