<svg width="25" height="25" viewBox="0 0 25 25" fill="none" xmlns="http://www.w3.org/2000/svg">
<circle cx="12.5" cy="12.5" r="12" stroke="#FAEEE2"/>
<path d="M14.3326 11.5348C14.3385 11.4821 14.3339 11.4289 14.3191 11.378C14.3043 11.3272 14.2797 11.2797 14.2466 11.2384C14.2135 11.197 14.1726 11.1626 14.1262 11.1371C14.0798 11.1116 14.0288 11.0954 13.9762 11.0896C13.9236 11.0838 13.8703 11.0884 13.8194 11.1031C13.7686 11.1179 13.7211 11.1425 13.6798 11.1756C13.6384 11.2087 13.604 11.2497 13.5785 11.2961C13.553 11.3425 13.5368 11.3934 13.531 11.4461C13.498 11.7421 13.3722 12.0201 13.1716 12.2403C12.9709 12.4605 12.7058 12.6116 12.4141 12.6719C12.3093 12.6935 12.2173 12.7558 12.1585 12.8452C12.0997 12.9346 12.0787 13.0437 12.1003 13.1485C12.122 13.2533 12.1843 13.3452 12.2737 13.4041C12.3631 13.4629 12.4722 13.4838 12.577 13.4622C13.0356 13.3675 13.4526 13.13 13.7679 12.7837C14.0833 12.4375 14.281 12.0003 14.3326 11.5348Z" fill="#FAEEE2"/>
<path d="M9.30533 7.25806C9.19839 7.25806 9.09582 7.30054 9.0202 7.37616C8.94458 7.45178 8.9021 7.55434 8.9021 7.66129V11.6936C8.90183 12.4795 9.18847 13.2385 9.7082 13.828C10.2279 14.4175 10.945 14.797 11.7247 14.8953V17.7421H10.515C10.4081 17.7421 10.3055 17.7846 10.2299 17.8602C10.1543 17.9358 10.1118 18.0384 10.1118 18.1453C10.1118 18.2523 10.1543 18.3548 10.2299 18.4305C10.3055 18.5061 10.4081 18.5486 10.515 18.5486H13.7409C13.8478 18.5486 13.9504 18.5061 14.026 18.4305C14.1016 18.3548 14.1441 18.2523 14.1441 18.1453C14.1441 18.0384 14.1016 17.9358 14.026 17.8602C13.9504 17.7846 13.8478 17.7421 13.7409 17.7421H12.5312V14.9195V14.8953C13.3109 14.797 14.028 14.4175 14.5477 13.828C15.0674 13.2385 15.3541 12.4795 15.3538 11.6936V7.66129C15.3538 7.55434 15.3113 7.45178 15.2357 7.37616C15.1601 7.30054 15.0575 7.25806 14.9506 7.25806H9.30533ZM9.70856 9.67745V8.06452H14.5473V9.67745H9.70856ZM9.70856 10.4839H14.5473V11.6936C14.5473 12.3353 14.2924 12.9507 13.8387 13.4044C13.385 13.8581 12.7696 14.113 12.128 14.113C11.4863 14.113 10.8709 13.8581 10.4172 13.4044C9.96346 12.9507 9.70856 12.3353 9.70856 11.6936V10.4839Z" fill="#FAEEE2"/>
</svg>
